<?xml version="1.0"?>
<svg xmlns="http://www.w3.org/2000/svg" xmlns:xlink="http://www.w3.org/1999/xlink" version="1.1"
    viewBox="0 0 512 512" style="enable-background:new 0 0 512 512;" xml:space="preserve"><g id="_x31_6_x2C__Gambler_x2C__Casino_x2C__Bet_x2C__Gambler_x2C__Gambling_x2C__Money_x2C__Chip_x2C__Poker_Chip"><g><path style="fill:#e6ebf1;" d="M492.78,318.841l-1.26-125.71l1.25-0.26c-22.32-83.83-87.97-149.99-171.51-173.01    c-0.75-0.21-1.5-0.41-2.26-0.6l-0.01,0.03l-125.97-0.04c-84.62,22.44-151.26,89.03-173.79,173.62l1.25,0.26l-1.26,125.71    l-0.1,0.01c22.83,86.4,91.68,154.09,178.73,175.27l0.17-1.27l125.71-1.26c82.5-23.69,147.16-89.54,169.15-172.74L492.78,318.841z"/><circle style="fill:#e6ebf1;" cx="256" cy="256.071" r="110"/><circle style="fill:#e6ebf1;" cx="131" cy="381.071" r="20"/><circle style="fill:#e6ebf1;" cx="381" cy="381.071" r="20"/><circle style="fill:#e6ebf1;" cx="381" cy="131.071" r="20"/><circle style="fill:#e6ebf1;" cx="131" cy="131.071" r="20"/><path style="fill:#5750f1;" d="M298.45,233.701c9.87,11.82,9.26,29.42-1.84,40.52c-5.87,5.87-13.57,8.81-21.27,8.81    c-6.88,0-13.76-2.35-19.34-7.04c-11.82,9.95-29.48,9.35-40.61-1.77c-5.87-5.87-8.81-13.57-8.81-21.27    c0-6.85,2.32-13.69,6.97-19.25c0.57-0.7,1.19-1.37,1.84-2.02l40.61-40.61l40.61,40.61    C297.26,232.331,297.88,233.001,298.45,233.701z"/><path style="fill:#5750f1;" d="M492.77,192.871c5.37,20.16,8.23,41.35,8.23,63.2c0,21.7-2.82,42.75-8.12,62.78l-0.1-0.01    L411,303.431v-90l80.52-20.3L492.77,192.871z"/><path style="fill:#5750f1;" d="M303.43,411.071l20.3,80.52c-21.51,6.17-44.23,9.48-67.73,9.48c-20.04,0-39.51-2.4-58.15-6.95    l0.17-1.27l15.41-81.78H303.43z"/><path style="fill:#5750f1;" d="M101,213.431v90l-81.78,15.41l-0.1,0.01c-5.3-20.03-8.12-41.08-8.12-62.78    c0-21.85,2.86-43.04,8.23-63.2l1.25,0.26L101,213.431z"/><path style="fill:#5750f1;" d="M319,19.261l-0.01,0.03l-15.41,81.78h-90l-20.56-81.82c0.76-0.21,1.53-0.41,2.29-0.6    c19.41-4.95,39.74-7.58,60.69-7.58C277.78,11.071,298.9,13.911,319,19.261z"/><g><path style="fill:#27303e;" d="M1,256.071c0,140.951,114.068,255,255,255c140.951,0,255-114.068,255-255     C511,111.767,392.728,0.746,255.992,0.929C117.039,1.115,1,113.532,1,256.071z M421,221.223c0.002-0.001,0.007-0.002,0.01-0.003     c0,0,0,0,0,0c0.033-0.008,0.017-0.004,0.021-0.005c0.003-0.001,0.006-0.002,0.008-0.002c0,0-0.001,0-0.001,0     c20.932-5.264,32.868-8.266,64.377-16.19c7.4,33.361,7.512,68.353-0.048,102.245L421,295.14V221.223z M307.436,26.603     l-12.148,64.468h-73.911l-16.207-64.488C240.341,18.77,275.019,19.275,307.436,26.603z M90.962,221.213     C90.961,221.213,90.961,221.213,90.962,221.213c-0.001,0,0.013,0.003,0.015,0.004c0.004,0.001,0.008,0.002,0.013,0.003     c0,0,0,0,0,0c0.004,0.001,0.008,0.002,0.01,0.003v73.917l-64.367,12.129c-7.546-33.83-7.46-68.799-0.052-102.246     C94.719,222.159,90.279,221.042,90.962,221.213z M209.454,486.433c3.772-20.095,11.995-63.905,12.255-65.293c0,0,0,0,0,0     c0.009-0.049,0.004-0.02,0.013-0.069l0,0c-0.001,0.005-0.002,0.011-0.004,0.019c0.002-0.009,0.003-0.015,0.004-0.019h73.917     l15.968,63.336C278.202,492.543,243.216,493.245,209.454,486.433z M330.832,478.853l-17.705-70.227     c-1.12-4.442-5.116-7.555-9.697-7.555h-90c-4.809,0-8.937,3.423-9.827,8.148c-3.804,20.194-10.311,54.625-13.63,72.395     C114.91,459.603,55.311,401.065,31.83,326.636c19.582-3.667,58.016-10.934,71.021-13.378c4.726-0.891,8.148-5.019,8.148-9.827     v-90c0-4.581-3.113-8.577-7.555-9.697c-41.724-10.512-61.842-15.593-71.696-18.078c22.66-72.353,79.476-130.684,154.094-153.924     l18.039,71.777c1.117,4.446,5.114,7.562,9.698,7.562h90c4.809,0,8.937-3.423,9.827-8.148l13.389-71.051     c72.056,22.982,130.315,80.245,153.439,153.789c-9.843,2.482-29.945,7.56-71.68,18.074c-4.442,1.12-7.555,5.116-7.555,9.697v90     c0,4.809,3.423,8.937,8.148,9.827c39.925,7.517,60.429,11.387,71.019,13.385C457.611,398.136,401.733,454.975,330.832,478.853z"/><path style="fill:#27303e;" d="M256,136.071c-66.168,0-120,53.832-120,120s53.832,120,120,120s120-53.832,120-120     S322.168,136.071,256,136.071z M256,356.071c-55.14,0-100-44.86-100-100s44.86-100,100-100s100,44.86,100,100     S311.14,356.071,256,356.071z"/><path style="fill:#27303e;" d="M263.072,184c-3.905-3.905-10.237-3.905-14.143,0l-40.61,40.61     c-15.461,15.47-15.844,40.838,0,56.683c10.067,10.067,24.513,13.669,37.681,10.576v19.203h-11.878c-5.523,0-10,4.477-10,10     s4.477,10,10,10c13.7,0,29.705,0,43.756,0c5.523,0,10-4.477,10-10s-4.477-10-10-10H266v-19.159     c37.338,8.95,64.823-35.042,40.162-64.583C304.147,224.89,306.255,227.265,263.072,184z M275.34,273.033     c-4.534,0-9.072-1.51-12.941-4.721c-3.756-3.133-9.184-3.046-12.836,0.03c-7.89,6.64-19.795,6.116-27.101-1.191     c-7.456-7.455-7.787-19.196-1.209-27.078c0.991-1.198-0.293,0.22,34.748-34.859l33.539,33.539     C302.441,251.64,292.877,273.033,275.34,273.033z"/><path style="fill:#27303e;" d="M161,131.071c0-16.542-13.458-30-30-30s-30,13.458-30,30s13.458,30,30,30S161,147.613,161,131.071     z M121,131.071c0-5.514,4.486-10,10-10s10,4.486,10,10s-4.486,10-10,10S121,136.585,121,131.071z"/><path style="fill:#27303e;" d="M381,161.071c16.542,0,30-13.458,30-30s-13.458-30-30-30s-30,13.458-30,30     S364.458,161.071,381,161.071z M381,121.071c5.514,0,10,4.486,10,10s-4.486,10-10,10s-10-4.486-10-10     S375.486,121.071,381,121.071z"/><path style="fill:#27303e;" d="M381,351.071c-16.542,0-30,13.458-30,30s13.458,30,30,30s30-13.458,30-30     S397.542,351.071,381,351.071z M381,391.071c-5.514,0-10-4.486-10-10s4.486-10,10-10s10,4.486,10,10S386.514,391.071,381,391.071     z"/><path style="fill:#27303e;" d="M131,351.071c-16.542,0-30,13.458-30,30s13.458,30,30,30s30-13.458,30-30     S147.542,351.071,131,351.071z M131,391.071c-5.514,0-10-4.486-10-10s4.486-10,10-10s10,4.486,10,10S136.514,391.071,131,391.071     z"/></g></g></g><g id="Layer_1"/></svg>