<?xml version="1.0" encoding="UTF-8" standalone="no"?>
<!-- Created with Inkscape (http://www.inkscape.org/) -->

<svg
   width="1720.0002"
   height="553.60303"
   viewBox="0 0 1720.0002 553.60303"
   version="1.1"
   id="svg1"
   xml:space="preserve"
   inkscape:export-filename="logo-new.svg"
   inkscape:export-xdpi="96"
   inkscape:export-ydpi="96"
   xmlns:inkscape="http://www.inkscape.org/namespaces/inkscape"
   xmlns:sodipodi="http://sodipodi.sourceforge.net/DTD/sodipodi-0.dtd"
   xmlns="http://www.w3.org/2000/svg"
   xmlns:svg="http://www.w3.org/2000/svg"><sodipodi:namedview
     id="namedview1"
     pagecolor="#ffffff"
     bordercolor="#000000"
     borderopacity="0.25"
     inkscape:showpageshadow="2"
     inkscape:pageopacity="0.0"
     inkscape:pagecheckerboard="0"
     inkscape:deskcolor="#d1d1d1"
     inkscape:document-units="px"
     inkscape:zoom="0.37962963"
     inkscape:cx="1097.122"
     inkscape:cy="748.09756"
     inkscape:window-width="1920"
     inkscape:window-height="1029"
     inkscape:window-x="0"
     inkscape:window-y="27"
     inkscape:window-maximized="1"
     inkscape:current-layer="layer1"><inkscape:page
       x="0"
       y="0"
       width="1720.0002"
       height="553.60303"
       id="page2"
       margin="0"
       bleed="0" /></sodipodi:namedview><defs
     id="defs1" /><g
     inkscape:label="Layer 1"
     inkscape:groupmode="layer"
     id="layer1"
     transform="translate(-100,-253.99979)"><g
       id="g1"
       transform="matrix(1,0,0,0.9997212,49,284.07149)"
       style="stroke:#000000;stroke-opacity:1"><g
         id="Layer_1"
         style="stroke:#000000;stroke-opacity:1" /><g
         id="g2"
         transform="matrix(0.99804305,0,0,0.9980436,50.500978,0.50083369)"><g
           id="_x31_6_x2C__Gambler_x2C__Casino_x2C__Bet_x2C__Gambler_x2C__Gambling_x2C__Money_x2C__Chip_x2C__Poker_Chip"><g
             id="g17"><path
               style="fill:#e6ebf1"
               d="m 492.78,318.841 -1.26,-125.71 1.25,-0.26 C 470.45,109.041 404.8,42.881 321.26,19.861 c -0.75,-0.21 -1.5,-0.41 -2.26,-0.6 l -0.01,0.03 -125.97,-0.04 C 108.4,41.691 41.76,108.281 19.23,192.871 l 1.25,0.26 -1.26,125.71 -0.1,0.01 c 22.83,86.4 91.68,154.09 178.73,175.27 l 0.17,-1.27 125.71,-1.26 c 82.5,-23.69 147.16,-89.54 169.15,-172.74 z"
               id="path1" /><circle
               style="fill:#e6ebf1"
               cx="256"
               cy="256.07101"
               r="110"
               id="circle1" /><circle
               style="fill:#e6ebf1"
               cx="131"
               cy="381.07101"
               r="20"
               id="circle2" /><circle
               style="fill:#e6ebf1"
               cx="381"
               cy="381.07101"
               r="20"
               id="circle3" /><circle
               style="fill:#e6ebf1"
               cx="381"
               cy="131.071"
               r="20"
               id="circle4" /><circle
               style="fill:#e6ebf1"
               cx="131"
               cy="131.071"
               r="20"
               id="circle5" /><path
               style="fill:#5750f1"
               d="m 298.45,233.701 c 9.87,11.82 9.26,29.42 -1.84,40.52 -5.87,5.87 -13.57,8.81 -21.27,8.81 -6.88,0 -13.76,-2.35 -19.34,-7.04 -11.82,9.95 -29.48,9.35 -40.61,-1.77 -5.87,-5.87 -8.81,-13.57 -8.81,-21.27 0,-6.85 2.32,-13.69 6.97,-19.25 0.57,-0.7 1.19,-1.37 1.84,-2.02 l 40.61,-40.61 40.61,40.61 c 0.65,0.65 1.27,1.32 1.84,2.02 z"
               id="path5" /><path
               style="fill:#5750f1"
               d="m 492.77,192.871 c 5.37,20.16 8.23,41.35 8.23,63.2 0,21.7 -2.82,42.75 -8.12,62.78 l -0.1,-0.01 -81.78,-15.41 v -90 l 80.52,-20.3 z"
               id="path6" /><path
               style="fill:#5750f1"
               d="m 303.43,411.071 20.3,80.52 c -21.51,6.17 -44.23,9.48 -67.73,9.48 -20.04,0 -39.51,-2.4 -58.15,-6.95 l 0.17,-1.27 15.41,-81.78 z"
               id="path7" /><path
               style="fill:#5750f1"
               d="m 101,213.431 v 90 l -81.78,15.41 -0.1,0.01 c -5.3,-20.03 -8.12,-41.08 -8.12,-62.78 0,-21.85 2.86,-43.04 8.23,-63.2 l 1.25,0.26 z"
               id="path8" /><path
               style="fill:#5750f1"
               d="m 319,19.261 -0.01,0.03 -15.41,81.78 h -90 l -20.56,-81.82 c 0.76,-0.21 1.53,-0.41 2.29,-0.6 19.41,-4.95 39.74,-7.58 60.69,-7.58 21.78,0 42.9,2.84 63,8.19 z"
               id="path9" /><g
               id="g16"><path
                 style="fill:#27303e"
                 d="m 1,256.071 c 0,140.951 114.068,255 255,255 140.951,0 255,-114.068 255,-255 C 511,111.767 392.728,0.746 255.992,0.929 117.039,1.115 1,113.532 1,256.071 Z m 420,-34.848 c 0.002,-0.001 0.007,-0.002 0.01,-0.003 0,0 0,0 0,0 0.033,-0.008 0.017,-0.004 0.021,-0.005 0.003,-0.001 0.006,-0.002 0.008,-0.002 0,0 -10e-4,0 -10e-4,0 20.932,-5.264 32.868,-8.266 64.377,-16.19 7.4,33.361 7.512,68.353 -0.048,102.245 L 421,295.14 Z M 307.436,26.603 295.288,91.071 H 221.377 L 205.17,26.583 c 35.171,-7.813 69.849,-7.308 102.266,0.02 z M 90.962,221.213 c -0.001,0 -0.001,0 0,0 -0.001,0 0.013,0.003 0.015,0.004 0.004,10e-4 0.008,0.002 0.013,0.003 0,0 0,0 0,0 0.004,0.001 0.008,0.002 0.01,0.003 v 73.917 l -64.367,12.129 c -7.546,-33.83 -7.46,-68.799 -0.052,-102.246 68.138,17.136 63.698,16.019 64.381,16.19 z m 118.492,265.22 c 3.772,-20.095 11.995,-63.905 12.255,-65.293 0,0 0,0 0,0 0.009,-0.049 0.004,-0.02 0.013,-0.069 v 0 c -0.001,0.005 -0.002,0.011 -0.004,0.019 0.002,-0.009 0.003,-0.015 0.004,-0.019 h 73.917 l 15.968,63.336 c -33.405,8.136 -68.391,8.838 -102.153,2.026 z m 121.378,-7.58 -17.705,-70.227 c -1.12,-4.442 -5.116,-7.555 -9.697,-7.555 h -90 c -4.809,0 -8.937,3.423 -9.827,8.148 -3.804,20.194 -10.311,54.625 -13.63,72.395 C 114.91,459.603 55.311,401.065 31.83,326.636 c 19.582,-3.667 58.016,-10.934 71.021,-13.378 4.726,-0.891 8.148,-5.019 8.148,-9.827 v -90 c 0,-4.581 -3.113,-8.577 -7.555,-9.697 C 61.72,193.222 41.602,188.141 31.748,185.656 54.408,113.303 111.224,54.972 185.842,31.732 l 18.039,71.777 c 1.117,4.446 5.114,7.562 9.698,7.562 h 90 c 4.809,0 8.937,-3.423 9.827,-8.148 l 13.389,-71.051 c 72.056,22.982 130.315,80.245 153.439,153.789 -9.843,2.482 -29.945,7.56 -71.68,18.074 -4.442,1.12 -7.555,5.116 -7.555,9.697 v 90 c 0,4.809 3.423,8.937 8.148,9.827 39.925,7.517 60.429,11.387 71.019,13.385 -22.555,71.492 -78.433,128.331 -149.334,152.209 z"
                 id="path10" /><path
                 style="fill:#27303e"
                 d="m 256,136.071 c -66.168,0 -120,53.832 -120,120 0,66.168 53.832,120 120,120 66.168,0 120,-53.832 120,-120 0,-66.168 -53.832,-120 -120,-120 z m 0,220 c -55.14,0 -100,-44.86 -100,-100 0,-55.14 44.86,-100 100,-100 55.14,0 100,44.86 100,100 0,55.14 -44.86,100 -100,100 z"
                 id="path11" /><path
                 style="fill:#27303e"
                 d="m 263.072,184 c -3.905,-3.905 -10.237,-3.905 -14.143,0 l -40.61,40.61 c -15.461,15.47 -15.844,40.838 0,56.683 10.067,10.067 24.513,13.669 37.681,10.576 v 19.203 h -11.878 c -5.523,0 -10,4.477 -10,10 0,5.523 4.477,10 10,10 13.7,0 29.705,0 43.756,0 5.523,0 10,-4.477 10,-10 0,-5.523 -4.477,-10 -10,-10 H 266 v -19.159 c 37.338,8.95 64.823,-35.042 40.162,-64.583 -2.015,-2.44 0.093,-0.065 -43.09,-43.33 z m 12.268,89.033 c -4.534,0 -9.072,-1.51 -12.941,-4.721 -3.756,-3.133 -9.184,-3.046 -12.836,0.03 -7.89,6.64 -19.795,6.116 -27.101,-1.191 -7.456,-7.455 -7.787,-19.196 -1.209,-27.078 0.991,-1.198 -0.293,0.22 34.748,-34.859 l 33.539,33.539 c 12.901,12.887 3.337,34.28 -14.2,34.28 z"
                 id="path12" /><path
                 style="fill:#27303e"
                 d="m 161,131.071 c 0,-16.542 -13.458,-30 -30,-30 -16.542,0 -30,13.458 -30,30 0,16.542 13.458,30 30,30 16.542,0 30,-13.458 30,-30 z m -40,0 c 0,-5.514 4.486,-10 10,-10 5.514,0 10,4.486 10,10 0,5.514 -4.486,10 -10,10 -5.514,0 -10,-4.486 -10,-10 z"
                 id="path13" /><path
                 style="fill:#27303e"
                 d="m 381,161.071 c 16.542,0 30,-13.458 30,-30 0,-16.542 -13.458,-30 -30,-30 -16.542,0 -30,13.458 -30,30 0,16.542 13.458,30 30,30 z m 0,-40 c 5.514,0 10,4.486 10,10 0,5.514 -4.486,10 -10,10 -5.514,0 -10,-4.486 -10,-10 0,-5.514 4.486,-10 10,-10 z"
                 id="path14" /><path
                 style="fill:#27303e"
                 d="m 381,351.071 c -16.542,0 -30,13.458 -30,30 0,16.542 13.458,30 30,30 16.542,0 30,-13.458 30,-30 0,-16.542 -13.458,-30 -30,-30 z m 0,40 c -5.514,0 -10,-4.486 -10,-10 0,-5.514 4.486,-10 10,-10 5.514,0 10,4.486 10,10 0,5.514 -4.486,10 -10,10 z"
                 id="path15" /><path
                 style="fill:#27303e"
                 d="m 131,351.071 c -16.542,0 -30,13.458 -30,30 0,16.542 13.458,30 30,30 16.542,0 30,-13.458 30,-30 0,-16.542 -13.458,-30 -30,-30 z m 0,40 c -5.514,0 -10,-4.486 -10,-10 0,-5.514 4.486,-10 10,-10 5.514,0 10,4.486 10,10 0,5.514 -4.486,10 -10,10 z"
                 id="path16" /></g></g></g><g
           id="Layer_1-7" /></g></g><g
       id="text1"
       style="font-size:370.259px;line-height:0.7;font-family:BroadwayD;-inkscape-font-specification:BroadwayD;fill:#e6ebf1;fill-opacity:1;stroke-width:2.56945"
       aria-label="Poker &#10;Bankroll"><path
         style="font-family:'Bronco Personal Use';-inkscape-font-specification:'Bronco Personal Use';fill:#e6ebf1;fill-opacity:1"
         d="m 797.54357,358.78308 q 0,14.81036 -5.18363,26.28839 -2.22155,4.81337 -5.92414,9.62673 -3.33234,4.81337 -8.88622,8.88622 -5.18363,3.70259 -12.58881,5.92414 -7.40518,2.22156 -17.03191,2.22156 h -24.43709 q -1.11078,0 -2.22156,1.11077 -0.74052,0.74052 -0.74052,2.22156 v 68.12765 q 0,5.18363 3.70259,8.88622 l 7.40518,7.40518 q 0.74052,0.74052 0.74052,2.22155 -0.37026,1.11078 -1.85129,1.11078 h -57.39015 q -1.11078,0 -1.85129,-1.11078 0,-1.48103 0.74051,-2.22155 l 7.40518,-7.40518 q 3.70259,-3.70259 3.70259,-8.88622 v -86.6406 q 0,-4.81337 -3.70259,-9.25648 l -7.40518,-7.40518 q -0.74051,-0.74051 -0.74051,-1.48103 0,-0.37026 0.74051,-1.11078 1.11078,-1.11078 2.59182,-2.59181 1.11077,-1.11078 2.22155,-2.59182 1.48104,-1.48103 2.59181,-2.59181 3.70259,-3.70259 3.70259,-8.88622 v -86.6406 q 0,-5.18363 -3.70259,-8.88622 -1.11077,-1.48103 -2.59181,-2.59181 -1.11078,-1.48104 -2.22155,-2.59181 -1.48104,-1.48104 -2.59182,-2.59182 -0.74051,-0.37026 -0.74051,-2.22155 1.11077,-1.11078 1.85129,-1.11078 h 74.79232 q 9.62673,0 17.03191,2.22156 7.40518,2.22155 12.58881,5.92414 5.55388,3.70259 8.88622,8.51596 3.70259,4.44311 5.92414,9.62673 5.18363,11.47803 5.18363,26.28839 z m -37.0259,-55.16859 q 0,-4.44311 -1.48104,-7.03492 -1.48104,-2.96207 -3.70259,-4.07285 -1.8513,-1.48104 -4.07285,-1.8513 -2.22155,-0.37026 -4.07285,-0.37026 h -23.69657 q -1.48104,0 -2.22156,0.74052 -0.74052,1.48104 -0.74052,2.22156 v 79.23542 q 0,1.11078 0.74052,2.59182 1.48104,0.74051 2.22156,0.74051 h 23.69657 q 1.8513,0 4.07285,-0.37025 2.22155,-0.37026 4.07285,-1.8513 2.22155,-1.48104 3.70259,-4.07285 1.48104,-2.96207 1.48104,-7.40518 z m 190.68318,73.68154 q 0.74051,0.74052 0.74051,1.11078 0,0.74052 -0.74051,1.48103 l -7.40518,7.40518 q -3.70259,3.70259 -3.70259,9.25648 v 53.68755 q 0,14.81036 -5.55389,26.28839 -2.22155,4.81337 -5.92414,9.62674 -3.33233,4.81336 -8.88622,8.51595 -5.18363,3.70259 -12.58881,5.92415 -7.03492,2.22155 -17.03191,2.22155 h -19.99399 q -9.62673,0 -17.03191,-2.22155 -7.03492,-2.22156 -12.58881,-5.92415 -5.18362,-3.70259 -8.88621,-8.51595 -3.33233,-4.81337 -5.55389,-9.62674 -5.55388,-11.47803 -5.55388,-26.28839 V 396.5495 q 0,-5.55389 -3.70259,-9.25648 l -7.40518,-7.40518 q -0.74052,-0.74051 -0.74052,-1.48103 0,-0.37026 0.74052,-1.11078 1.11077,-1.11078 2.59181,-2.59181 1.11078,-1.11078 2.22155,-2.59182 1.48104,-1.48103 2.59182,-2.59181 3.70259,-3.33233 3.70259,-8.88622 v -54.05781 q 0,-14.81036 5.55388,-26.28839 4.44311,-9.99699 14.4401,-18.14269 10.36726,-8.1457 29.62072,-8.1457 h 19.99399 q 19.62373,0 29.62072,8.1457 10.36725,8.1457 14.81036,18.14269 5.55389,11.47803 5.55389,26.28839 v 54.05781 q 0,5.55389 3.70259,8.88622 1.48103,1.11078 2.59181,2.59181 1.48103,1.48104 2.22155,2.59182 1.48104,1.48103 2.59182,2.59181 z m -48.50393,-73.68154 q 0,-4.44311 -1.48104,-7.03492 -1.48104,-2.96207 -3.70259,-4.07285 -1.8513,-1.48104 -4.07285,-1.8513 -2.22155,-0.37026 -4.07285,-0.37026 h -18.51295 q -1.48103,0 -4.07285,0.37026 -2.22155,0.37026 -4.07285,1.8513 -1.85129,1.11078 -3.33233,4.07285 -1.48103,2.59181 -1.48103,7.03492 v 149.58464 q 0,4.81336 1.48103,7.40518 1.48104,2.59181 3.33233,4.07284 1.8513,1.48104 4.07285,1.8513 2.59182,0.37026 4.07285,0.37026 h 18.51295 q 3.70259,0 8.51596,-2.22156 4.81337,-2.22155 4.81337,-11.47802 z M 1112.6337,499.4815 q 0.7405,1.48104 0.3703,2.22155 -0.3703,1.11078 -1.8513,1.11078 h -63.6846 q -1.481,0 -1.481,-1.11078 -0.7405,-1.11077 0.3702,-2.22155 l 3.3324,-3.33233 q 6.2944,-6.2944 2.2215,-14.06984 -2.5918,-6.29441 -7.0349,-15.18062 -4.0728,-8.88622 -8.516,-17.77243 -4.0728,-8.88622 -7.7754,-16.2914 -3.3323,-7.77544 -5.1836,-11.10777 0,-0.74052 -1.1108,-0.74052 -0.3703,0 -1.1108,0.74052 l -6.6646,13.32932 q -0.3703,0.74052 -0.3703,2.59182 v 45.1716 q 0,5.55388 3.7026,9.25647 l 7.4052,7.40518 q 0.7405,0.74052 0.7405,2.22155 -0.3703,1.11078 -1.8513,1.11078 h -57.39015 q -1.11077,0 -1.85129,-1.11078 0,-1.48103 0.74052,-2.22155 l 7.40518,-7.40518 q 3.70259,-3.70259 3.70259,-8.88622 v -87.01086 q 0,-4.44311 -3.70259,-8.88622 l -7.40518,-7.40518 q -0.74052,-0.74051 -0.74052,-1.48103 0,-0.37026 0.74052,-1.11078 1.11077,-1.11078 2.59181,-2.59181 1.11078,-1.11078 2.22155,-2.59182 1.48104,-1.48103 2.59182,-2.59181 3.70259,-3.70259 3.70259,-8.88622 v -86.6406 q 0,-4.81337 -3.70259,-9.25648 l -4.81337,-4.81336 q -1.48104,-1.48104 -2.59181,-2.59182 -0.74052,-0.37026 -0.74052,-2.22155 1.11078,-1.11078 1.85129,-1.11078 h 57.39015 q 0.7405,0 1.8513,1.11078 0,1.85129 -0.7405,2.22155 -1.1108,1.11078 -2.5918,2.59182 -0.7406,1.11077 -2.2216,2.59181 -1.1108,1.11078 -2.5918,2.59181 -3.7026,3.33233 -3.7026,8.88622 v 78.86517 q 0,0.74051 0.7405,1.48103 1.4811,0 1.4811,-0.74052 2.5918,-5.92414 7.0349,-16.29139 4.4431,-10.73751 9.2565,-22.21554 4.8133,-11.47803 9.2564,-22.21554 4.8134,-11.10777 7.4052,-17.77243 1.481,-3.70259 0.7405,-7.40518 -0.3702,-3.70259 -3.3323,-6.29441 l -4.0729,-4.07285 q -1.1107,-1.11077 -0.3702,-2.22155 1.1108,-1.11078 1.8513,-1.11078 h 63.6845 q 1.4811,0 1.4811,1.11078 0.7405,1.48104 -0.3703,2.22155 -2.5918,2.59182 -4.8134,5.18363 l -7.7754,7.77544 q -1.481,0.74052 -2.5918,3.33233 -2.2216,4.81337 -9.6267,19.25347 -7.035,14.06984 -15.1807,30.73149 -7.7754,16.66166 -15.1806,31.47202 -7.0349,14.81036 -9.997,20.7345 -1.1108,2.59182 0,5.55389 1.8513,3.70259 5.9242,11.84829 4.0728,7.77544 8.8862,17.77243 5.1836,9.99699 10.7375,20.7345 5.5539,10.73751 10.3672,20.73451 4.8134,9.62673 8.516,17.03191 4.0729,7.40518 5.5539,10.36725 0.7405,1.48104 2.2215,3.33233 1.8513,1.48104 4.4432,4.07285 2.5918,2.59182 5.5538,5.55389 2.9621,3.33233 6.6647,6.66466 z m 59.2414,-209.19634 q -3.3323,0 -3.3323,2.96208 v 64.0548 q 0,2.96208 3.3323,2.96208 h 31.8423 q 5.1836,0 8.8862,-3.70259 1.481,-1.48104 2.962,-2.59182 1.4811,-1.48103 2.5919,-2.59181 1.1107,-1.48104 2.5918,-2.96207 1.481,-0.74052 2.2215,-0.37026 1.1108,0.37026 1.1108,1.85129 v 57.39015 q 0,0.74052 -1.1108,1.48104 -1.1107,0.74051 -2.2215,-0.37026 l -8.516,-8.51596 q -3.7026,-3.70259 -8.8862,-3.70259 h -31.472 q -1.4811,0 -2.2216,1.11078 -1.1107,0.37026 -1.1107,2.22155 v 64.05481 q 0,1.48103 1.1107,2.22155 0.7405,1.11078 2.2216,1.11078 h 45.1716 q 4.8134,0 9.2565,-3.70259 1.481,-1.48104 2.5918,-2.96207 1.481,-1.48104 2.962,-2.59182 1.4811,-1.48103 2.9621,-2.96207 0.3703,-1.11078 1.8513,-0.37026 1.1108,0.37026 1.1108,1.8513 v 43.69056 q 0,2.96207 -2.9621,2.96207 h -113.6695 q -1.1108,0 -1.8513,-1.11078 0,-1.48103 0.7405,-2.22155 l 7.7755,-7.77544 q 3.7026,-3.70259 3.7026,-8.88621 V 396.5495 q 0,-5.18363 -3.7026,-8.88622 l -7.7755,-7.77544 q -0.7405,-0.74051 -0.7405,-1.48103 0,-0.37026 0.7405,-1.11078 l 7.7755,-7.77544 q 3.7026,-4.44311 3.7026,-9.25647 v -86.27035 q 0,-5.18363 -3.7026,-8.88622 l -7.7755,-7.77544 q -0.7405,-0.37026 -0.7405,-2.22155 0.7405,-1.11078 1.8513,-1.11078 h 113.6695 q 2.9621,0 2.9621,3.33233 v 43.32031 q 0,1.11077 -1.1108,1.85129 -1.1108,0.37026 -1.8513,-0.37026 -1.481,-1.48103 -2.9621,-2.96207 -1.1107,-1.11078 -2.5918,-2.59181 -1.481,-1.48104 -2.962,-2.59182 -3.3324,-3.70259 -8.8863,-3.70259 z m 221.7845,209.19634 q 1.1108,1.11078 0.3703,2.22155 -0.3703,1.11078 -1.481,1.11078 h -57.3902 q -1.1108,0 -1.8513,-1.11078 -0.3702,-0.74051 0.3703,-2.22155 l 9.2564,-8.88622 q -4.8133,-19.62372 -8.8862,-36.28538 -1.481,-7.40518 -3.3323,-14.4401 -1.8513,-7.40518 -3.3323,-13.69958 -1.4811,-6.2944 -2.5918,-11.10777 -1.1108,-5.18363 -1.8513,-7.77544 -0.7406,-2.59181 -3.3324,-2.59181 h -13.3293 q -2.9621,0 -2.9621,3.33233 v 80.3462 l 11.1078,11.10777 q 0.7405,0.74052 0.7405,2.22155 -0.3702,1.11078 -1.8513,1.11078 h -57.3901 q -1.1108,0 -1.8513,-1.11078 0,-1.48103 0.7405,-2.22155 l 11.1078,-11.10777 v -97.37812 l -11.1078,-11.10777 q -0.7405,-0.74051 -0.7405,-1.48103 0,-0.37026 0.7405,-1.11078 l 11.1078,-11.47803 v -91.82423 q 0,-5.18363 -3.7026,-8.88622 -1.1108,-1.48103 -2.5918,-2.59181 -1.1108,-1.48104 -2.2216,-2.59181 -1.481,-1.48104 -2.5918,-2.59182 -0.7405,-0.37026 -0.7405,-2.22155 1.1108,-1.11078 1.8513,-1.11078 h 74.7923 q 9.6267,0 17.0319,2.22156 7.4052,2.22155 12.5888,5.92414 5.5539,3.70259 8.8862,8.51596 3.7026,4.44311 5.9242,9.62673 5.1836,11.47803 5.1836,26.28839 v 45.1716 q 0,8.1457 -1.8513,16.2914 -1.8513,7.03492 -5.9241,14.4401 -3.7026,7.40518 -11.1078,13.32932 -1.481,1.11078 -1.1108,3.33233 1.4811,5.18363 4.8134,19.62373 3.3323,14.06984 7.4052,29.62072 4.4431,18.14269 9.6267,39.61771 z m -50.3552,-195.86701 q 0,-4.44311 -1.481,-7.03492 -1.4811,-2.96207 -3.7026,-4.07285 -1.8513,-1.48104 -4.0729,-1.8513 -2.2215,-0.37026 -4.0728,-0.37026 h -23.6966 q -1.481,0 -2.2215,0.74052 -0.7406,1.48104 -0.7406,2.22156 V 365.818 q 0,0.74052 0.7406,2.22156 1.481,0.74051 2.2215,0.74051 h 23.6966 q 1.8513,0 4.0728,-0.37026 2.2216,-0.37025 4.0729,-1.85129 2.2215,-1.48104 3.7026,-4.07285 1.481,-2.96207 1.481,-7.40518 z"
         id="path3" /><path
         style="font-family:'Bronco Personal Use';-inkscape-font-specification:'Bronco Personal Use';fill:#e6ebf1;fill-opacity:1;stroke:#000000"
         d="m 799.76512,753.74129 q 0,14.81036 -5.18363,26.28839 -2.22155,4.81336 -5.92414,9.62673 -3.33233,4.81337 -8.88622,8.51596 -5.18362,3.70259 -12.5888,5.92414 -7.40518,2.22156 -17.03192,2.22156 h -77.01387 q -1.11078,0 -1.85129,-1.11078 0,-1.48104 0.37025,-2.22155 l 11.47803,-11.10777 V 694.49985 L 671.6555,683.39208 q 0,-0.37026 -0.37025,-0.37026 0,-0.37026 0,-1.11078 0,-0.37026 0,-0.37026 0.37025,-0.37026 0.37025,-0.74051 l 11.47803,-11.47803 V 572.31438 L 671.6555,560.83635 q -0.37025,-0.37026 -0.37025,-2.22156 1.11077,-1.11077 1.85129,-1.11077 h 75.16258 q 9.62673,0 17.03191,2.22155 7.40518,2.22156 12.58881,5.92415 5.55388,3.70259 8.88621,8.51595 3.70259,4.44311 5.92415,9.62674 5.18362,11.47803 5.18362,26.28839 v 36.28538 q -0.37025,5.92414 -2.22155,11.84829 -1.85129,5.18362 -5.18363,10.73751 -3.33233,5.55388 -9.62673,10.36725 -0.74052,0.74052 -0.74052,1.48104 0.74052,1.11077 1.11078,1.48103 7.03492,4.81337 10.36725,10.73751 3.70259,5.55389 5.55389,10.73751 2.22155,6.29441 2.59181,12.21855 z m -79.23543,-93.67553 q 0,1.48104 0.74052,2.22155 1.11078,1.11078 2.22156,1.11078 h 22.58579 q 1.8513,0 4.07285,-0.37026 2.59182,-0.37026 4.81337,-1.85129 2.22155,-1.48104 3.70259,-4.07285 1.8513,-2.96207 1.8513,-7.40518 v -42.57979 q 0,-4.4431 -1.48104,-7.03492 -1.48104,-2.96207 -3.70259,-4.07285 -1.8513,-1.48103 -4.07285,-1.85129 -2.22155,-0.37026 -4.07285,-0.37026 h -23.69657 q -1.48104,0 -2.22156,0.74052 -0.74052,1.48103 -0.74052,2.22155 z m 41.83927,53.3173 q 0,-4.81337 -1.85129,-7.40518 -1.48104,-2.96207 -3.70259,-4.44311 -2.22156,-1.48104 -4.81337,-1.8513 -2.59181,-0.37025 -4.44311,-0.37025 h -24.06683 q -1.11078,0 -2.22156,1.11077 -0.74052,0.74052 -0.74052,2.22156 v 64.42506 q 0,1.48104 0.74052,2.22156 1.11078,1.11077 2.22156,1.11077 h 25.54787 q 3.70259,0 8.51595,-2.22155 4.81337,-2.22155 4.81337,-11.47803 z m 205.12306,89.60268 q 0.74052,0.74051 0.74052,2.22155 -0.37026,1.11078 -1.85129,1.11078 H 908.9911 q -1.11078,0 -1.85129,-1.11078 0,-1.48104 0.74051,-2.22155 l 4.44311,-4.44311 q 4.81337,-4.81337 3.70259,-11.10777 -0.74052,-4.44311 -1.85129,-10.73751 -0.74052,-6.29441 -1.8513,-12.58881 -1.11078,-6.66466 -2.22155,-12.21855 -0.74052,-5.55388 -1.11078,-8.51595 -0.74052,-2.96208 -3.33233,-2.96208 h -37.39616 q -2.59181,0 -3.33233,2.96208 -0.37026,2.96207 -1.48104,8.51595 -0.74052,5.55389 -1.85129,12.21855 -1.11078,6.2944 -2.22156,12.58881 -0.74051,6.2944 -1.48103,10.73751 -1.11078,6.2944 3.70259,11.10777 2.22155,2.22155 3.33233,2.96207 0.74052,0.74052 1.48103,1.48104 0.37026,0.74051 0.37026,2.22155 -0.37026,1.11078 -1.85129,1.11078 h -57.39015 q -1.11077,0 -1.85129,-1.11078 0,-1.48104 0.74052,-2.22155 l 10.36725,-10.36726 q 2.59181,-2.59181 3.70259,-6.66466 1.11078,-5.55388 2.96207,-16.66165 2.22155,-11.47803 4.44311,-24.06684 2.22155,-12.95906 4.44311,-24.80735 2.22155,-12.21855 3.33233,-19.25347 1.11077,-6.2944 -3.70259,-11.10777 l -6.66466,-6.66466 q -0.74052,-0.74052 -0.74052,-1.48104 0,-0.37026 0.74052,-1.11077 2.59181,-2.59182 5.18362,-5.55389 l 8.88622,-8.88622 q 3.33233,-3.33233 3.70259,-6.66466 1.11077,-5.55388 2.96207,-16.29139 1.85129,-11.10777 4.07285,-23.32632 2.22155,-12.21855 4.44311,-23.69658 2.22155,-11.84829 3.33233,-18.51295 1.11077,-6.2944 -3.70259,-11.10777 -1.8513,-2.22155 -4.07285,-4.07285 -0.74052,-1.11077 -1.8513,-1.85129 -1.11077,-1.11078 -0.37026,-2.22156 0.74052,-1.11077 1.8513,-1.11077 h 75.53284 q 1.48103,0 1.85129,1.11077 0.74052,1.11078 -0.37026,2.22156 l -7.03492,7.03492 q -4.44311,4.44311 -3.33233,11.10777 1.11078,6.66466 2.96207,18.14269 2.22156,11.47803 4.44311,23.69658 2.22155,12.21854 4.07285,22.95605 1.85129,10.73752 2.96207,15.92114 0.37026,3.33233 3.70259,6.66466 1.8513,1.8513 4.07285,4.44311 2.59181,2.22156 4.81337,4.44311 2.59181,2.96207 5.18362,5.55389 0.74052,0.74051 0.74052,1.11077 0,0.74052 -0.74052,1.48104 l -6.66466,6.66466 q -4.81337,4.81337 -3.70259,11.10777 1.11078,7.03492 3.33233,19.25347 2.22156,11.84829 4.44311,24.80735 2.59181,12.58881 4.44311,24.06684 2.22155,11.10777 3.33233,16.66165 0.74052,3.70259 3.33233,6.66466 z m -66.27636,-99.59968 q 1.11078,-1.11077 0.74052,-2.59181 -0.74052,-5.18362 -2.59181,-16.29139 -1.8513,-11.47803 -4.07285,-24.4371 -1.8513,-12.95906 -4.07285,-25.17761 -1.8513,-12.58881 -2.96207,-19.99399 0,-1.11077 -1.11078,-1.11077 -1.48104,0 -1.48104,1.11077 -1.11077,7.40518 -3.33233,19.99399 -1.85129,12.21855 -4.07285,25.17761 -1.85129,12.95907 -3.70259,24.4371 -1.85129,11.10777 -2.59181,16.29139 -0.37026,1.48104 0.74052,2.59181 0.74052,1.11078 2.22155,1.11078 h 24.06684 q 1.85129,0 2.22155,-1.11078 z m 222.15484,99.59968 q 0.7405,1.48103 0.3702,2.22155 -0.3702,1.11078 -1.8513,1.11078 h -57.3901 q -0.7405,0 -1.481,-1.11078 -0.7406,-1.11078 0.3702,-2.22155 l 4.4431,-4.44311 q 5.5539,-5.55389 2.9621,-12.95907 -2.2216,-6.2944 -5.9241,-16.29139 -3.3324,-9.997 -7.4052,-22.21554 -4.0729,-12.21855 -8.8862,-25.17762 -4.4432,-12.95906 -8.516,-24.80735 -4.0728,-11.84829 -7.4052,-21.84528 -3.3323,-9.99699 -5.5539,-15.92114 -0.3702,-1.11077 -1.481,-1.11077 -1.1108,0.37025 -1.1108,1.48103 v 126.99884 q 0,4.44311 3.7026,8.88622 l 7.4052,7.40518 q 0.7405,0.74051 0.7405,2.22155 -0.3702,1.11078 -1.8513,1.11078 h -57.39013 q -1.11078,0 -1.8513,-1.11078 0,-1.48104 0.74052,-2.22155 1.11078,-1.11078 2.59182,-2.59182 1.11077,-1.11077 2.22155,-2.59181 1.48104,-1.48104 2.59181,-2.59181 3.70259,-3.33233 3.70259,-8.88622 v -86.27035 q 0,-5.55388 -3.70259,-9.25647 l -7.40518,-7.40518 q -0.74052,-0.74052 -0.74052,-1.48104 0,-0.74052 0.74052,-1.48103 l 7.40518,-7.40518 q 3.70259,-3.70259 3.70259,-9.25648 V 577.498 q 0,-5.55388 -3.70259,-8.88621 -1.11077,-1.48104 -2.59181,-2.59182 -1.11078,-1.48103 -2.22155,-2.59181 -1.48104,-1.48103 -2.59182,-2.59181 -0.74052,-0.74052 -0.74052,-2.22156 0.74052,-1.11077 1.8513,-1.11077 h 57.39013 q 1.4811,0 1.8513,1.11077 0,1.48104 -0.7405,2.22156 l -0.7405,0.74052 q -5.5539,5.55388 -2.9621,12.95906 1.8513,5.92415 5.1836,15.92114 3.3324,9.99699 7.0349,21.84528 3.7026,11.84829 7.7755,24.80735 4.4431,12.95907 8.1457,24.80736 3.7026,11.84828 7.0349,22.21554 3.3323,9.99699 5.1836,15.92113 0.7406,1.11078 1.4811,1.11078 1.1107,-1.11078 1.1107,-1.48104 V 577.498 q 0,-5.18362 -3.7025,-8.88621 l -7.7755,-7.77544 q -1.1108,-1.11078 -0.3702,-2.22156 0.7405,-1.11077 1.481,-1.11077 h 57.3901 q 1.4811,0 1.8513,1.11077 0.3703,0.74052 -0.3702,2.22156 -1.1108,1.11078 -2.5918,2.59181 -1.1108,0.74052 -2.5919,2.22156 -1.1107,1.11077 -2.5918,2.59181 -3.7026,4.44311 -3.7026,8.88621 v 87.01087 q 0,5.18363 3.7026,8.88622 1.4811,1.11077 2.5918,2.59181 1.4811,1.11078 2.5919,2.22155 1.481,1.48104 2.5918,2.59182 0.3702,0.37026 0.3702,1.48103 0,1.11078 -0.3702,1.48104 -1.1108,1.11078 -2.5918,2.59181 -1.1108,0.74052 -2.5919,2.22156 -1.1107,1.11077 -2.5918,2.59181 -3.7026,3.70259 -3.7026,8.88621 v 87.01087 q 0,4.44311 3.7026,8.88622 z m 163.284,0 q 0.7405,1.48103 0.3702,2.22155 -0.3702,1.11078 -1.8513,1.11078 h -63.6845 q -1.4811,0 -1.4811,-1.11078 -0.7405,-1.11078 0.3703,-2.22155 l 3.3323,-3.33234 q 6.2944,-6.2944 2.2216,-14.06984 -2.5918,-6.2944 -7.0349,-15.18062 -4.0729,-8.88621 -8.516,-17.77243 -4.0729,-8.88621 -7.7754,-16.29139 -3.3324,-7.77544 -5.1837,-11.10777 0,-0.74052 -1.1107,-0.74052 -0.3703,0 -1.1108,0.74052 l -6.6647,13.32932 q -0.3702,0.74052 -0.3702,2.59181 v 45.1716 q 0,5.55389 3.7025,9.25648 l 7.4052,7.40518 q 0.7405,0.74051 0.7405,2.22155 -0.3702,1.11078 -1.8512,1.11078 h -57.3902 q -1.1108,0 -1.8513,-1.11078 0,-1.48104 0.7405,-2.22155 l 7.4052,-7.40518 q 3.7026,-3.70259 3.7026,-8.88622 v -87.01087 q 0,-4.4431 -3.7026,-8.88621 l -7.4052,-7.40518 q -0.7405,-0.74052 -0.7405,-1.48104 0,-0.37026 0.7405,-1.11077 1.1108,-1.11078 2.5918,-2.59182 1.1108,-1.11077 2.2216,-2.59181 1.481,-1.48104 2.5918,-2.59181 3.7026,-3.70259 3.7026,-8.88622 V 577.498 q 0,-4.81336 -3.7026,-9.25647 l -4.8134,-4.81337 q -1.481,-1.48103 -2.5918,-2.59181 -0.7405,-0.37026 -0.7405,-2.22156 1.1108,-1.11077 1.8513,-1.11077 h 57.3902 q 0.7405,0 1.8512,1.11077 0,1.8513 -0.7405,2.22156 -1.1107,1.11078 -2.5918,2.59181 -0.7405,1.11078 -2.2215,2.59181 -1.1108,1.11078 -2.5919,2.59182 -3.7025,3.33233 -3.7025,8.88621 v 78.86517 q 0,0.74052 0.7405,1.48104 1.481,0 1.481,-0.74052 2.5918,-5.92415 7.0349,-16.2914 4.4431,-10.73751 9.2565,-22.21554 4.8134,-11.47803 9.2565,-22.21554 4.8133,-11.10777 7.4052,-17.77243 1.481,-3.70259 0.7405,-7.40518 -0.3703,-3.70259 -3.3324,-6.2944 l -4.0728,-4.07285 q -1.1108,-1.11078 -0.3703,-2.22156 1.1108,-1.11077 1.8513,-1.11077 h 63.6846 q 1.481,0 1.481,1.11077 0.7405,1.48104 -0.3702,2.22156 -2.5919,2.59181 -4.8134,5.18362 l -7.7754,7.77544 q -1.4811,0.74052 -2.5919,3.33233 -2.2215,4.81337 -9.6267,19.25347 -7.0349,14.06984 -15.1806,30.7315 -7.7754,16.66165 -15.1806,31.47201 -7.035,14.81036 -9.997,20.73451 -1.1108,2.59181 0,5.55388 1.8513,3.70259 5.9241,11.84829 4.0729,7.77544 8.8862,17.77243 5.1837,9.997 10.7375,20.73451 5.5539,10.73751 10.3673,20.7345 4.8134,9.62674 8.516,17.03192 4.0728,7.40518 5.5538,10.36725 0.7406,1.48103 2.2216,3.33233 1.8513,1.48104 4.4431,4.07285 2.5918,2.59181 5.5539,5.55388 2.9621,3.33233 6.6647,6.66467 z m 146.2522,0 q 1.1108,1.11077 0.3703,2.22155 -0.3703,1.11078 -1.4811,1.11078 h -57.3901 q -1.1108,0 -1.8513,-1.11078 -0.3703,-0.74052 0.3702,-2.22155 l 9.2565,-8.88622 q -4.8133,-19.62373 -8.8862,-36.28538 -1.481,-7.40518 -3.3323,-14.4401 -1.8513,-7.40518 -3.3324,-13.69959 -1.481,-6.2944 -2.5918,-11.10777 -1.1107,-5.18362 -1.8513,-7.77544 -0.7405,-2.59181 -3.3323,-2.59181 h -13.3293 q -2.9621,0 -2.9621,3.33233 v 80.34621 l 11.1078,11.10777 q 0.7405,0.74051 0.7405,2.22155 -0.3703,1.11078 -1.8513,1.11078 h -57.3901 q -1.1108,0 -1.8513,-1.11078 0,-1.48104 0.7405,-2.22155 l 11.1077,-11.10777 v -97.37812 l -11.1077,-11.10777 q -0.7405,-0.74052 -0.7405,-1.48104 0,-0.37026 0.7405,-1.11077 l 11.1077,-11.47803 V 577.498 q 0,-5.18362 -3.7025,-8.88621 -1.1108,-1.48104 -2.5919,-2.59182 -1.1107,-1.48103 -2.2215,-2.59181 -1.481,-1.48103 -2.5918,-2.59181 -0.7405,-0.37026 -0.7405,-2.22156 1.1107,-1.11077 1.8513,-1.11077 h 74.7923 q 9.6267,0 17.0319,2.22155 7.4052,2.22156 12.5888,5.92415 5.5539,3.70259 8.8862,8.51595 3.7026,4.44311 5.9242,9.62674 5.1836,11.47803 5.1836,26.28839 v 45.17159 q 0,8.1457 -1.8513,16.2914 -1.8513,7.03492 -5.9242,14.4401 -3.7025,7.40518 -11.1077,13.32933 -1.4811,1.11077 -1.1108,3.33233 1.481,5.18362 4.8134,19.62372 3.3323,14.06985 7.4051,29.62072 4.4431,18.14269 9.6268,39.61772 z m -50.3552,-195.86702 q 0,-4.4431 -1.4811,-7.03492 -1.481,-2.96207 -3.7025,-4.07285 -1.8513,-1.48103 -4.0729,-1.85129 -2.2215,-0.37026 -4.0728,-0.37026 h -23.6966 q -1.4811,0 -2.2216,0.74052 -0.7405,1.48103 -0.7405,2.22155 v 72.57077 q 0,0.74051 0.7405,2.22155 1.4811,0.74052 2.2216,0.74052 h 23.6966 q 1.8513,0 4.0728,-0.37026 2.2216,-0.37026 4.0729,-1.8513 2.2215,-1.48103 3.7025,-4.07285 1.4811,-2.96207 1.4811,-7.40518 z m 196.977,73.68155 q 0.7405,0.74051 0.7405,1.11077 0,0.74052 -0.7405,1.48104 l -7.4052,7.40518 q -3.7026,3.70259 -3.7026,9.25647 v 53.68756 q 0,14.81036 -5.5539,26.28839 -2.2215,4.81336 -5.9241,9.62673 -3.3324,4.81337 -8.8862,8.51596 -5.1837,3.70259 -12.5889,5.92414 -7.0349,2.22156 -17.0319,2.22156 h -19.994 q -9.6267,0 -17.0319,-2.22156 -7.0349,-2.22155 -12.5888,-5.92414 -5.1836,-3.70259 -8.8862,-8.51596 -3.3323,-4.81337 -5.5539,-9.62673 -5.5539,-11.47803 -5.5539,-26.28839 v -53.68756 q 0,-5.55388 -3.7026,-9.25647 l -7.4051,-7.40518 q -0.7405,-0.74052 -0.7405,-1.48104 0,-0.37026 0.7405,-1.11077 1.1107,-1.11078 2.5918,-2.59182 1.1108,-1.11077 2.2215,-2.59181 1.4811,-1.48104 2.5918,-2.59181 3.7026,-3.33234 3.7026,-8.88622 V 610.0808 q 0,-14.81036 5.5539,-26.28839 4.4431,-9.997 14.4401,-18.14269 10.3673,-8.1457 29.6207,-8.1457 h 19.994 q 19.6238,0 29.6208,8.1457 10.3672,8.14569 14.8103,18.14269 5.5539,11.47803 5.5539,26.28839 v 54.05781 q 0,5.55388 3.7026,8.88622 1.481,1.11077 2.5918,2.59181 1.481,1.48104 2.2216,2.59181 1.481,1.48104 2.5918,2.59182 z m -48.504,-73.68155 q 0,-4.4431 -1.481,-7.03492 -1.481,-2.96207 -3.7026,-4.07285 -1.8513,-1.48103 -4.0728,-1.85129 -2.2216,-0.37026 -4.0729,-0.37026 h -18.5129 q -1.4811,0 -4.0729,0.37026 -2.2215,0.37026 -4.0728,1.85129 -1.8513,1.11078 -3.3324,4.07285 -1.481,2.59182 -1.481,7.03492 v 149.58464 q 0,4.81337 1.481,7.40518 1.4811,2.59181 3.3324,4.07285 1.8513,1.48104 4.0728,1.85129 2.5918,0.37026 4.0729,0.37026 h 18.5129 q 3.7026,0 8.516,-2.22155 4.8133,-2.22155 4.8133,-11.47803 z m 170.6893,150.32516 q 1.1108,0.37026 1.1108,1.48103 v 44.43108 q 0,1.11078 -1.1108,2.22156 -0.7405,0.74052 -2.2215,0.74052 h -104.4131 q -1.1107,0 -1.8513,-1.11078 0,-1.48104 0.7406,-2.22155 l 7.4051,-7.40518 q 3.7026,-3.70259 3.7026,-8.88622 v -86.64061 q 0,-5.55388 -3.7026,-9.25647 l -7.4051,-7.40518 q -0.7406,-0.74052 -0.7406,-1.48104 0,-0.74052 0.7406,-1.48103 l 7.4051,-7.40518 q 3.7026,-3.70259 3.7026,-8.88622 V 577.498 q 0,-5.55388 -3.7026,-9.25647 l -7.4051,-7.40518 q -0.7406,-0.74052 -0.7406,-2.22156 0.7406,-1.11077 1.8513,-1.11077 h 57.3902 q 1.481,0 1.8513,1.11077 0,1.48104 -0.7405,2.22156 -1.1108,1.11078 -2.5919,2.59181 -1.8513,2.22156 -4.8133,4.81337 -3.7026,3.70259 -3.7026,9.25647 v 86.64061 q 0,5.18363 3.7026,8.88622 l 7.4052,7.40518 q 0.7405,0.74051 0.7405,1.48103 0,0.74052 -0.7405,1.48104 l -7.4052,7.40518 q -3.7026,3.70259 -3.7026,9.25647 v 67.01688 q 0,3.33233 2.9621,3.33233 h 36.2853 q 5.1837,0 8.8863,-3.70259 l 8.8862,-8.88621 q 1.1107,-1.11078 2.2215,-0.37026 z m 115.891,0 q 1.1107,0.37026 1.1107,1.48103 v 44.43108 q 0,1.11078 -1.1107,2.22156 -0.7406,0.74052 -2.2216,0.74052 h -104.413 q -1.1108,0 -1.8513,-1.11078 0,-1.48104 0.7405,-2.22155 l 7.4052,-7.40518 q 3.7026,-3.70259 3.7026,-8.88622 v -86.64061 q 0,-5.55388 -3.7026,-9.25647 l -7.4052,-7.40518 q -0.7405,-0.74052 -0.7405,-1.48104 0,-0.74052 0.7405,-1.48103 l 7.4052,-7.40518 q 3.7026,-3.70259 3.7026,-8.88622 V 577.498 q 0,-5.55388 -3.7026,-9.25647 l -7.4052,-7.40518 q -0.7405,-0.74052 -0.7405,-2.22156 0.7405,-1.11077 1.8513,-1.11077 h 57.3901 q 1.481,0 1.8513,1.11077 0,1.48104 -0.7405,2.22156 -1.1108,1.11078 -2.5918,2.59181 -1.8513,2.22156 -4.8134,4.81337 -3.7026,3.70259 -3.7026,9.25647 v 86.64061 q 0,5.18363 3.7026,8.88622 l 7.4052,7.40518 q 0.7405,0.74051 0.7405,1.48103 0,0.74052 -0.7405,1.48104 l -7.4052,7.40518 q -3.7026,3.70259 -3.7026,9.25647 v 67.01688 q 0,3.33233 2.9621,3.33233 h 36.2854 q 5.1836,0 8.8862,-3.70259 l 8.8862,-8.88621 q 1.1108,-1.11078 2.2216,-0.37026 z"
         id="path4" /></g></g></svg>
